<svg width="52" height="52" viewBox="0 0 52 52" fill="none" xmlns="http://www.w3.org/2000/svg">
<g id="36px/quote">
<g id="Group">
<g id="Group_2">
<path id="Vector" d="M31.1096 39.8213C29.8092 40.3666 29.2638 41.9187 29.8511 43.1772L31.9066 47.4979C32.4939 48.714 33.9201 49.2598 35.1786 48.714C38.7442 47.2039 41.8065 45.2323 44.2395 42.8412C47.2179 40.0311 49.2314 36.801 50.3221 33.2354C51.4127 29.6274 52 24.7198 52 18.4694V5.59119C52 4.20689 50.8674 3.07427 49.4831 3.07427H32.9973C31.6129 3.07427 30.4803 4.20689 30.4803 5.59119V22.077C30.4803 23.4618 31.6129 24.5939 32.9973 24.5939H40.8836C40.7997 28.8312 39.7929 32.2286 37.9472 34.7879C36.437 36.8425 34.1718 38.5205 31.1096 39.8213Z" fill="#E0E0E0"/>
<path id="Vector_2" d="M1.49525 39.8224C0.194845 40.3678 -0.350067 41.9199 0.236794 43.1783L2.29228 47.4567C2.87956 48.6732 4.30582 49.2185 5.56428 48.6732C9.08797 47.163 12.1087 45.1914 14.5832 42.8423C17.562 39.9898 19.6171 36.7598 20.7082 33.1941C21.7988 29.6709 22.3438 24.7624 22.3438 18.4701V5.5919C22.3438 4.20759 21.2111 3.07497 19.8268 3.07497H3.341C1.95669 3.07497 0.824076 4.20759 0.824076 5.5919V22.0777C0.824076 23.4625 1.95669 24.5946 3.341 24.5946H11.2693C11.1854 28.8319 10.1782 32.2293 8.33289 34.7886C6.82274 36.8437 4.55751 38.5216 1.49525 39.8224Z" fill="#E0E0E0"/>
</g>
</g>
</g>
</svg>
